<?xml version="1.0" encoding="utf-8"?>
<!-- Svg Vector Icons : http://www.onlinewebfonts.com/icon -->
<!DOCTYPE svg PUBLIC "-//W3C//DTD SVG 1.1//EN" "http://www.w3.org/Graphics/SVG/1.1/DTD/svg11.dtd">
<svg version="1.1" xmlns="http://www.w3.org/2000/svg" xmlns:xlink="http://www.w3.org/1999/xlink" x="0px" y="0px" viewBox="0 0 1000 1000" enable-background="new 0 0 1000 1000" xml:space="preserve">
<metadata> Svg Vector Icons : http://www.onlinewebfonts.com/icon </metadata>
<g><path d="M688.2,990c-20.8,0-37.7-16.8-37.7-37.7V386.9c0-7.5,2.3-14.8,6.4-21L845.3,85.4H154.6l188,280.5c4.1,6.2,6.4,13.5,6.4,21v319.4l210.9,144.2c17.2,11.8,21.6,35.2,9.8,52.4c-11.8,17.2-35.2,21.6-52.4,9.8L290,757.3c-10.3-7-16.4-18.7-16.4-31.1V398.4L52.7,68.7c-7.7-11.6-8.5-26.5-2-38.7C57.2,17.7,70.1,10,84,10h832c13.9,0,26.7,7.7,33.3,20c6.6,12.3,5.8,27.2-2,38.7L725.9,398.4v553.9C725.9,973.2,709.1,990,688.2,990z"/><path d="M499.7,804.7"/></g>
</svg>