<?xml version="1.0" encoding="utf-8"?>
<!-- Svg Vector Icons : http://www.onlinewebfonts.com/icon -->
<!DOCTYPE svg PUBLIC "-//W3C//DTD SVG 1.1//EN" "http://www.w3.org/Graphics/SVG/1.1/DTD/svg11.dtd">
<svg version="1.1" xmlns="http://www.w3.org/2000/svg" xmlns:xlink="http://www.w3.org/1999/xlink" x="0px" y="0px" viewBox="0 0 1000 1000" enable-background="new 0 0 1000 1000" xml:space="preserve">
<metadata> Svg Vector Icons : http://www.onlinewebfonts.com/icon </metadata>
<g><g><path d="M928.8,836.9c-33.8,0-61.3-27.4-61.3-61.3v-61.3V530.6c0-203-164.5-367.5-367.5-367.5c-203,0-367.5,164.5-367.5,367.5v183.8v61.3c0,33.8-27.4,61.3-61.3,61.3S10,809.4,10,775.6v-61.3V530.6c0-270.6,219.4-490,490-490s490,219.4,490,490v183.8v61.3C990,809.4,962.6,836.9,928.8,836.9z M224.4,591.9h61.3c16.9,0,30.6,13.7,30.6,30.6v306.3c0,16.9-13.7,30.6-30.6,30.6h-61.3c-16.9,0-30.6-13.7-30.6-30.6V622.5C193.8,605.6,207.5,591.9,224.4,591.9z M714.4,591.9h61.3c16.9,0,30.6,13.7,30.6,30.6v306.3c0,16.9-13.7,30.6-30.6,30.6h-61.3c-16.9,0-30.6-13.7-30.6-30.6V622.5C683.8,605.6,697.4,591.9,714.4,591.9z"/></g></g>
</svg>